<?xml version="1.0" standalone="no"?><!DOCTYPE svg PUBLIC "-//W3C//DTD SVG 1.1//EN" "http://www.w3.org/Graphics/SVG/1.1/DTD/svg11.dtd"><svg t="1637732972620" class="icon" viewBox="0 0 1638 1024" version="1.1" xmlns="http://www.w3.org/2000/svg" p-id="3776" xmlns:xlink="http://www.w3.org/1999/xlink" width="959.765625" height="600"><defs><style type="text/css"></style></defs><path d="M409.6 327.68C464.384 109.1584 600.9856 0 819.2 0c327.68 0 368.64 245.76 532.48 286.72 109.2608 27.2384 204.8-13.7216 286.72-122.88-54.4768 218.4192-191.0784 327.68-409.6 327.68-327.5776 0-368.5376-245.76-532.3776-286.72-109.2608-27.4432-204.8 13.6192-286.72 122.88zM0 819.0976c54.5792-218.4192 191.1808-327.68 409.6-327.68 327.68 0 368.5376 245.76 532.48 286.72 109.1584 27.4432 204.8-13.6192 286.72-122.88-54.6816 218.5216-191.1808 327.68-409.6 327.68-327.68 0-368.64-245.76-532.48-286.72C177.5616 668.8768 81.92 709.9392 0 819.2z" fill="#4DB6AC" p-id="3777"></path></svg>